<svg width="1250" height="430" viewBox="0 0 1250 430" fill="none" xmlns="http://www.w3.org/2000/svg">
<rect width="1250" height="430" fill="white"/>
<path d="M1098.52 256.817H1076.8L1106.46 214.352L1078.91 175.128H1101.11L1117.48 198.63L1133.85 175.128H1156.06L1128.5 214.352L1158 256.817H1136.44L1117.48 229.911L1098.52 256.817Z" fill="#1F2A37"/>
<path d="M1024.72 258.113C1006.41 258.113 994.415 244.823 994.415 225.697V175.128H1014.19V221.483C1014.19 232.667 1021.16 240.447 1031.21 240.447C1042.39 240.447 1050.17 231.694 1050.17 219.7V175.128H1070.11V256.817H1050.17V244.174C1045.63 253.089 1036.39 258.113 1024.72 258.113Z" fill="#1F2A37"/>
<path d="M946.833 258.113C919.927 258.113 905.34 237.043 905.34 215.649C905.34 194.092 918.631 173.832 945.212 173.832C972.603 173.832 984.759 193.768 984.759 213.217C984.759 215.973 984.597 218.566 984.435 220.187H924.466C926.086 233.153 934.19 241.581 946.833 241.581C957.044 241.581 963.689 237.367 965.796 229.587H985.246C982.166 246.93 966.931 258.113 946.833 258.113ZM924.952 206.572H964.986C964.175 196.199 957.206 188.905 945.212 188.905C934.353 188.905 927.221 195.064 924.952 206.572Z" fill="#1F2A37"/>
<path d="M821.01 256.817V140.119H840.784V187.771C845.322 178.856 854.56 173.832 866.23 173.832C884.707 173.832 896.701 187.122 896.701 206.248V256.817H876.765V210.462C876.765 199.278 869.958 191.498 859.747 191.498C848.563 191.498 840.784 200.251 840.784 212.245V256.817H821.01Z" fill="#1F2A37"/>
<path d="M786.468 256.817C768.639 256.817 757.293 245.957 757.293 227.967V191.823H738.492V175.129H757.293V150.493H777.067V175.129H805.107V191.823H777.067V227.318C777.067 235.26 781.929 239.961 789.547 239.961H811.752V256.817H786.468Z" fill="#1F2A37"/>
<path d="M697.705 258.113C670.8 258.113 656.212 237.043 656.212 215.649C656.212 194.092 669.503 173.832 696.084 173.832C723.476 173.832 735.632 193.768 735.632 213.217C735.632 215.973 735.469 218.566 735.307 220.187H675.338C676.959 233.153 685.063 241.581 697.705 241.581C707.916 241.581 714.561 237.367 716.668 229.587H736.118C733.038 246.93 717.803 258.113 697.705 258.113ZM675.824 206.572H715.858C715.047 196.199 708.078 188.905 696.084 188.905C685.225 188.905 678.093 195.064 675.824 206.572Z" fill="#1F2A37"/>
<path d="M547.395 256.817V175.129H566.52V185.826C569.6 179.343 575.921 173.832 585.808 173.832C595.208 173.832 602.34 179.343 605.582 186.96C609.147 179.829 617.737 173.832 627.624 173.832C642.049 173.832 651.612 184.529 651.612 201.872V256.817H632.487V207.058C632.487 197.171 628.597 191.499 621.465 191.499C613.686 191.499 608.985 197.82 608.985 207.707V256.817H589.86V207.058C589.86 197.171 585.97 191.499 578.838 191.499C571.059 191.499 566.52 197.82 566.52 207.707V256.817H547.395Z" fill="#1F2A37"/>
<path d="M496.303 258.113C471.505 258.113 453.676 240.285 453.676 215.973C453.676 191.661 471.505 173.832 496.303 173.832C521.263 173.832 539.092 191.661 539.092 215.973C539.092 240.285 521.263 258.113 496.303 258.113ZM496.303 240.933C509.918 240.933 518.994 230.722 518.994 215.973C518.994 201.223 509.918 191.012 496.303 191.012C482.85 191.012 473.774 201.223 473.774 215.973C473.774 230.722 482.85 240.933 496.303 240.933Z" fill="#1F2A37"/>
<path d="M394.938 256.817V175.128H414.711V189.554C418.763 179.18 425.246 175.128 435.782 175.128H455.393V191.823H432.378C419.736 191.823 414.711 202.682 414.711 218.242V256.817H394.938Z" fill="#1F2A37"/>
<path d="M303.505 289.881V175.129H323.279V185.015C328.465 178.208 337.704 173.832 347.915 173.832C371.578 173.832 385.841 191.174 385.841 215.973C385.841 240.771 371.416 258.113 348.077 258.113C337.704 258.113 328.141 253.575 323.279 246.606V289.881H303.505ZM344.025 240.933C357.315 240.933 366.068 231.046 366.068 215.973C366.068 200.899 357.315 191.012 344.025 191.012C330.896 191.012 321.982 200.899 321.982 215.973C321.982 231.046 330.896 240.933 344.025 240.933Z" fill="#1F2A37"/>
<circle cx="174.57" cy="174.141" r="15.9608" fill="#1F2A37"/>
<circle cx="149.033" cy="146.475" r="15.9608" fill="#1F2A37"/>
<circle cx="200.107" cy="146.475" r="15.9608" fill="#1F2A37"/>
<circle cx="174.57" cy="255.859" r="15.9608" transform="rotate(-180 174.57 255.859)" fill="#1F2A37"/>
<circle cx="200.108" cy="283.525" r="15.9608" transform="rotate(-180 200.108 283.525)" fill="#1F2A37"/>
<circle cx="149.033" cy="283.525" r="15.9608" transform="rotate(-180 149.033 283.525)" fill="#1F2A37"/>
<circle cx="135.626" cy="216.064" r="15.9608" transform="rotate(-90 135.626 216.064)" fill="#1F2A37"/>
<circle cx="107.961" cy="241.176" r="15.9608" transform="rotate(-90 107.961 241.176)" fill="#1F2A37"/>
<circle cx="107.96" cy="190.953" r="15.9608" transform="rotate(-90 107.96 190.953)" fill="#1F2A37"/>
<circle cx="213.514" cy="216.064" r="15.9608" transform="rotate(90 213.514 216.064)" fill="#1F2A37"/>
<circle cx="241.18" cy="190.952" r="15.9608" transform="rotate(90 241.18 190.952)" fill="#1F2A37"/>
<circle cx="241.18" cy="241.176" r="15.9608" transform="rotate(90 241.18 241.176)" fill="#1F2A37"/>
</svg>
