<svg width="185" height="30" viewBox="0 0 185 30" fill="none" xmlns="http://www.w3.org/2000/svg">
<path d="M174.177 21.8565H170.418L175.551 14.508L170.783 7.72041H174.625L177.458 11.7873L180.291 7.72041H184.133L179.365 14.508L184.47 21.8565H180.74L177.458 17.2005L174.177 21.8565Z" fill="white"/>
<path d="M161.407 22.0808C158.237 22.0808 156.162 19.7809 156.162 16.4713V7.72041H159.584V15.7421C159.584 17.6774 160.79 19.0236 162.529 19.0236C164.464 19.0236 165.81 17.5091 165.81 15.4335V7.72041H169.26V21.8565H165.81V19.6687C165.025 21.2114 163.426 22.0808 161.407 22.0808Z" fill="white"/>
<path d="M147.928 22.0809C143.272 22.0809 140.748 18.4347 140.748 14.7324C140.748 11.002 143.047 7.49605 147.647 7.49605C152.387 7.49605 154.491 10.9459 154.491 14.3116C154.491 14.7885 154.463 15.2372 154.435 15.5177H144.057C144.338 17.7615 145.74 19.22 147.928 19.22C149.695 19.22 150.845 18.4908 151.209 17.1445H154.575C154.042 20.1456 151.406 22.0809 147.928 22.0809ZM144.141 13.1617H151.069C150.929 11.3666 149.723 10.1045 147.647 10.1045C145.768 10.1045 144.534 11.1703 144.141 13.1617Z" fill="white"/>
<path d="M126.154 21.8564V1.66208H129.576V9.90811C130.361 8.36548 131.96 7.496 133.98 7.496C137.177 7.496 139.253 9.79592 139.253 13.1055V21.8564H135.803V13.8348C135.803 11.8995 134.625 10.5532 132.858 10.5532C130.922 10.5532 129.576 12.0678 129.576 14.1433V21.8564H126.154Z" fill="white"/>
<path d="M120.177 21.8565C117.092 21.8565 115.128 19.9773 115.128 16.864V10.6094H111.875V7.72044H115.128V3.45718H118.55V7.72044H123.402V10.6094H118.55V16.7518C118.55 18.1261 119.391 18.9395 120.71 18.9395H124.552V21.8565H120.177Z" fill="white"/>
<path d="M104.817 22.0809C100.161 22.0809 97.6363 18.4347 97.6363 14.7324C97.6363 11.002 99.9362 7.49605 104.536 7.49605C109.276 7.49605 111.38 10.9459 111.38 14.3116C111.38 14.7885 111.352 15.2372 111.324 15.5177H100.946C101.226 17.7615 102.629 19.22 104.817 19.22C106.584 19.22 107.733 18.4908 108.098 17.1445H111.464C110.931 20.1456 108.294 22.0809 104.817 22.0809ZM101.03 13.1617H107.958C107.818 11.3666 106.612 10.1045 104.536 10.1045C102.657 10.1045 101.423 11.1703 101.03 13.1617Z" fill="white"/>
<path d="M78.8055 21.8565V7.72043H82.1152V9.57158C82.6481 8.44967 83.7419 7.49605 85.4528 7.49605C87.0796 7.49605 88.3137 8.44967 88.8747 9.76791C89.4917 8.53381 90.9782 7.49605 92.6892 7.49605C95.1854 7.49605 96.8402 9.3472 96.8402 12.3483V21.8565H93.5306V13.2458C93.5306 11.5349 92.8574 10.5532 91.6233 10.5532C90.2771 10.5532 89.4637 11.6471 89.4637 13.358V21.8565H86.154V13.2458C86.154 11.5349 85.4809 10.5532 84.2468 10.5532C82.9005 10.5532 82.1152 11.6471 82.1152 13.358V21.8565H78.8055Z" fill="white"/>
<path d="M69.9642 22.0809C65.6729 22.0809 62.5876 18.9956 62.5876 14.7885C62.5876 10.5813 65.6729 7.49605 69.9642 7.49605C74.2835 7.49605 77.3688 10.5813 77.3688 14.7885C77.3688 18.9956 74.2835 22.0809 69.9642 22.0809ZM69.9642 19.1078C72.3202 19.1078 73.8909 17.3408 73.8909 14.7885C73.8909 12.2361 72.3202 10.4691 69.9642 10.4691C67.6362 10.4691 66.0656 12.2361 66.0656 14.7885C66.0656 17.3408 67.6362 19.1078 69.9642 19.1078Z" fill="white"/>
<path d="M52.423 21.8565V7.72041H55.8448V10.2167C56.546 8.4216 57.6679 7.72041 59.491 7.72041H62.8848V10.6093H58.902C56.7143 10.6093 55.8448 12.4885 55.8448 15.1811V21.8565H52.423Z" fill="white"/>
<path d="M36.6006 27.5782V7.72043H40.0225V9.43134C40.92 8.25334 42.5187 7.49605 44.2857 7.49605C48.3807 7.49605 50.8489 10.4972 50.8489 14.7885C50.8489 19.0798 48.3526 22.0809 44.3138 22.0809C42.5187 22.0809 40.8639 21.2955 40.0225 20.0895V27.5782H36.6006ZM43.6126 19.1078C45.9125 19.1078 47.4271 17.3969 47.4271 14.7885C47.4271 12.18 45.9125 10.4691 43.6126 10.4691C41.3407 10.4691 39.7981 12.18 39.7981 14.7885C39.7981 17.3969 41.3407 19.1078 43.6126 19.1078Z" fill="white"/>
<circle cx="14.2887" cy="7.54943" r="2.76199" fill="white"/>
<circle cx="9.86941" cy="2.76199" r="2.76199" fill="white"/>
<circle cx="18.7078" cy="2.76199" r="2.76199" fill="white"/>
<circle cx="14.2887" cy="21.6908" r="2.76199" transform="rotate(-180 14.2887 21.6908)" fill="white"/>
<circle cx="18.7079" cy="26.4783" r="2.76199" transform="rotate(-180 18.7079 26.4783)" fill="white"/>
<circle cx="9.86954" cy="26.4783" r="2.76199" transform="rotate(-180 9.86954 26.4783)" fill="white"/>
<circle cx="7.54946" cy="14.8043" r="2.76199" transform="rotate(-90 7.54946 14.8043)" fill="white"/>
<circle cx="2.76199" cy="19.1498" r="2.76199" transform="rotate(-90 2.76199 19.1498)" fill="white"/>
<circle cx="2.76199" cy="10.4587" r="2.76199" transform="rotate(-90 2.76199 10.4587)" fill="white"/>
<circle cx="21.0279" cy="14.8043" r="2.76199" transform="rotate(90 21.0279 14.8043)" fill="white"/>
<circle cx="25.8153" cy="10.4587" r="2.76199" transform="rotate(90 25.8153 10.4587)" fill="white"/>
<circle cx="25.8153" cy="19.1498" r="2.76199" transform="rotate(90 25.8153 19.1498)" fill="white"/>
</svg>
